<svg width="136" height="38" viewBox="0 0 136 38" fill="none" xmlns="http://www.w3.org/2000/svg">
<path fill-rule="evenodd" clip-rule="evenodd" d="M52.066 26L55.0107 15.904L57.9554 26H61.4122L66 12H62.8846L59.6838 22.5367L56.6964 12H53.3249L50.3375 22.5367L47.1368 12H44L48.6091 26H52.066ZM79.1075 26V23.5652H81V21.0885H79.1075V12H75.086L67 20.6057V23.5652H76.0538V26H79.1075ZM70 21H75V15L70 21ZM85.1025 26V21.1094H90.084C90.9289 21.1094 91.5952 21.0395 92.0832 20.8996C92.5711 20.7596 93.0336 20.5077 93.4706 20.1439C93.9513 19.7381 94.3263 19.2169 94.5958 18.5802C94.8653 17.9435 95 17.2684 95 16.5547C95 15.7011 94.7961 14.9105 94.3882 14.1829C93.8347 13.2174 93.0773 12.5807 92.116 12.2729C91.5479 12.091 90.6011 12 89.2756 12H82V26H85.1025ZM85 18H88.899C89.5993 18 90.0909 17.8912 90.3737 17.6735C90.7912 17.3333 91 16.7415 91 15.898C91 14.9864 90.6835 14.4014 90.0505 14.1429C89.8215 14.0476 89.4579 14 88.9596 14H85V18ZM107 26V23.5022H104.322C103.101 23.5022 102.247 23.3868 101.761 23.1559C101.276 22.925 100.987 22.4878 100.895 21.8441C100.856 21.5222 100.816 20.8646 100.777 19.8711V12H98V19.8711C98 21.2424 98.0722 22.2219 98.2166 22.8096C98.6105 24.3208 99.5295 25.3004 100.974 25.7481C101.604 25.916 102.621 26 104.026 26H107ZM107 26H110.483L111.846 22.7676H117.154L118.517 26H122L116.21 12H112.79L107 26ZM113 20L115 15L117 20H113ZM130.391 19.976V26H127.328V19.8711L122 12H125.581L128.881 17.4783L132.354 12H136L130.391 19.976Z" fill="url(#paint0_linear_1092:1575)"/>
<path fill-rule="evenodd" clip-rule="evenodd" d="M52.066 26L55.0107 15.904L57.9554 26H61.4122L66 12H62.8846L59.6838 22.5367L56.6964 12H53.3249L50.3375 22.5367L47.1368 12H44L48.6091 26H52.066ZM79.1075 26V23.5652H81V21.0885H79.1075V12H75.086L67 20.6057V23.5652H76.0538V26H79.1075ZM70 21H75V15L70 21ZM85.1025 26V21.1094H90.084C90.9289 21.1094 91.5952 21.0395 92.0832 20.8996C92.5711 20.7596 93.0336 20.5077 93.4706 20.1439C93.9513 19.7381 94.3263 19.2169 94.5958 18.5802C94.8653 17.9435 95 17.2684 95 16.5547C95 15.7011 94.7961 14.9105 94.3882 14.1829C93.8347 13.2174 93.0773 12.5807 92.116 12.2729C91.5479 12.091 90.6011 12 89.2756 12H82V26H85.1025ZM85 18H88.899C89.5993 18 90.0909 17.8912 90.3737 17.6735C90.7912 17.3333 91 16.7415 91 15.898C91 14.9864 90.6835 14.4014 90.0505 14.1429C89.8215 14.0476 89.4579 14 88.9596 14H85V18ZM107 26V23.5022H104.322C103.101 23.5022 102.247 23.3868 101.761 23.1559C101.276 22.925 100.987 22.4878 100.895 21.8441C100.856 21.5222 100.816 20.8646 100.777 19.8711V12H98V19.8711C98 21.2424 98.0722 22.2219 98.2166 22.8096C98.6105 24.3208 99.5295 25.3004 100.974 25.7481C101.604 25.916 102.621 26 104.026 26H107ZM107 26H110.483L111.846 22.7676H117.154L118.517 26H122L116.21 12H112.79L107 26ZM113 20L115 15L117 20H113ZM130.391 19.976V26H127.328V19.8711L122 12H125.581L128.881 17.4783L132.354 12H136L130.391 19.976Z" fill="url(#paint1_linear_1092:1575)"/>
<path fill-rule="evenodd" clip-rule="evenodd" d="M18.9285 38C29.4219 38 37.9285 29.4934 37.9285 19C37.9285 18.4196 37.9025 17.8452 37.8515 17.2781C35.9196 20.3515 33.3773 22.836 30.3915 22.1345C29.3698 21.8945 28.4357 21.6624 27.5776 21.4491C22.5728 20.2052 20.1503 19.6031 17.9763 21.8181C17.4985 22.3049 17.0082 23.0408 16.4522 23.8755C14.1715 27.2995 10.7845 32.3841 2.61239 28.7414C5.93054 34.2871 11.9959 38 18.9285 38ZM9.41269e-05 17.3391C0.841449 7.62349 8.9947 0 18.9285 0C27.6021 0 34.9182 5.81187 37.1949 13.7537C34.8026 16.2131 31.9702 18.3926 29.8724 17.754C27.9975 17.1832 26.6761 16.4875 25.5155 15.8766C23.9482 15.0515 22.6742 14.3808 20.7264 14.3808C18.5013 14.3808 16.9962 15.6659 14.8276 17.5176C13.6923 18.4869 12.3752 19.6115 10.6777 20.7884C7.49721 22.9933 2.88339 19.8547 9.41269e-05 17.3391ZM11.491 7.4C11.491 6.6268 10.8642 6 10.091 6H8.76601C7.99281 6 7.36601 6.6268 7.36601 7.4L7.36601 9.4375H5.32851C4.55531 9.4375 3.92851 10.0643 3.92851 10.8375V12.1625C3.92851 12.9357 4.55531 13.5625 5.32851 13.5625H7.36601V15.6C7.36601 16.3732 7.99281 17 8.76601 17H10.091C10.8642 17 11.491 16.3732 11.491 15.6V13.5625H13.5285C14.3017 13.5625 14.9285 12.9357 14.9285 12.1625V10.8375C14.9285 10.0643 14.3017 9.4375 13.5285 9.4375H11.491V7.4ZM26.9285 7C26.9285 8.65685 25.5854 10 23.9285 10C22.2717 10 20.9285 8.65685 20.9285 7C20.9285 5.34315 22.2717 4 23.9285 4C25.5854 4 26.9285 5.34315 26.9285 7ZM32.9285 13C32.9285 14.6569 31.5854 16 29.9285 16C28.2717 16 26.9285 14.6569 26.9285 13C26.9285 11.3431 28.2717 10 29.9285 10C31.5854 10 32.9285 11.3431 32.9285 13Z" fill="url(#paint2_linear_1092:1575)"/>
<defs>
<linearGradient id="paint0_linear_1092:1575" x1="44" y1="12" x2="44" y2="26" gradientUnits="userSpaceOnUse">
<stop/>
<stop offset="1" stop-color="white"/>
</linearGradient>
<linearGradient id="paint1_linear_1092:1575" x1="44" y1="12" x2="44" y2="26" gradientUnits="userSpaceOnUse">
<stop stop-color="#FDFDFD"/>
<stop offset="1" stop-color="#B4B4B2"/>
</linearGradient>
<linearGradient id="paint2_linear_1092:1575" x1="0" y1="0" x2="0" y2="38" gradientUnits="userSpaceOnUse">
<stop stop-color="#FDFDFD"/>
<stop offset="1" stop-color="#B4B4B2"/>
</linearGradient>
</defs>
</svg>
